<?xml version="1.0" encoding="UTF-8" standalone="no"?>
<svg
   xmlns:dc="http://purl.org/dc/elements/1.1/"
   xmlns:cc="http://creativecommons.org/ns#"
   xmlns:rdf="http://www.w3.org/1999/02/22-rdf-syntax-ns#"
   xmlns:svg="http://www.w3.org/2000/svg"
   xmlns="http://www.w3.org/2000/svg"
   xmlns:sodipodi="http://sodipodi.sourceforge.net/DTD/sodipodi-0.dtd"
   xmlns:inkscape="http://www.inkscape.org/namespaces/inkscape"
   height="110px"
   style="enable-background:new 0 0 110 110;"
   version="1.0"
   viewBox="0 0 110 110"
   width="110px"
   xml:space="preserve"
   id="svg48"
   sodipodi:docname="1491576162_Food-Dome.svg"
   inkscape:version="0.92.1 r15371"><metadata
     id="metadata54"><rdf:RDF><cc:Work
         rdf:about=""><dc:format>image/svg+xml</dc:format><dc:type
           rdf:resource="http://purl.org/dc/dcmitype/StillImage" /></cc:Work></rdf:RDF></metadata><defs
     id="defs52" /><sodipodi:namedview
     pagecolor="#ffffff"
     bordercolor="#666666"
     borderopacity="1"
     objecttolerance="10"
     gridtolerance="10"
     guidetolerance="10"
     inkscape:pageopacity="0"
     inkscape:pageshadow="2"
     inkscape:window-width="1920"
     inkscape:window-height="1027"
     id="namedview50"
     showgrid="false"
     inkscape:zoom="2.3141677"
     inkscape:cx="158.10959"
     inkscape:cy="-39.965034"
     inkscape:window-x="-8"
     inkscape:window-y="-8"
     inkscape:window-maximized="1"
     inkscape:current-layer="svg48" /><g
     id="g4583"><g
       id="Artboard" /><circle
       cx="55"
       cy="55"
       r="55"
       style="fill:#009688;fill-opacity:1"
       id="circle11" /><path
       d="m 37,79 c 0,0 3.778,-10.39 -2.436,-17.401 -0.339,-0.383 -0.336,-0.96 0.01,-1.337 C 36.719,57.917 40.528,57.967 46,68 c 1.429,2.619 4.409,2.479 7,1 4.928,-2.813 12.04,-11.775 19.5,-9.592 0.339,0.099 0.601,0.37 0.688,0.712 0.087,0.342 -0.013,0.705 -0.263,0.955 L 47,87 Z"
       style="fill:#fbc8c8"
       id="path13"
       inkscape:connector-curvature="0" /><path
       d="m 87,58 c 0,0.552 -0.448,1 -1,1 H 24 c -0.552,0 -1,-0.448 -1,-1 v -2 c 0,-0.552 0.448,-1 1,-1 h 62 c 0.552,0 1,0.448 1,1 z"
       style="fill:#f0f1f1"
       id="path17"
       inkscape:connector-curvature="0" /><path
       d="m 55,27 c 1.042,0 2.034,0.046 3,0.115 V 24 c 0,-0.552 -0.448,-1 -1,-1 h -4 c -0.552,0 -1,0.448 -1,1 v 3.115 C 52.966,27.046 53.958,27 55,27 Z"
       style="fill:#ffffff"
       id="path21"
       inkscape:connector-curvature="0" /><path
       d="m 27,55 c 0,0 -1,-28 28,-28 29,0 28,28 28,28 z"
       style="fill:#e2e4e5"
       id="path25"
       inkscape:connector-curvature="0" /><polygon
       points="37,79 27,87 47,87 "
       style="fill:#3e3e3f"
       id="polygon29" /><path
       d="M 55,27 C 26,27 27,55 27,55 h 28 z"
       style="fill:#ffffff"
       id="path33"
       inkscape:connector-curvature="0" /><path
       d="m 37,79 c 0,0 3.778,-10.39 -2.436,-17.401 -0.339,-0.383 -0.336,-0.96 0.01,-1.337 C 36.719,57.917 40.528,57.967 46,68 c 1.429,2.619 4.409,2.479 7,1 4.928,-2.813 12.04,-11.775 19.5,-9.592 0.339,0.099 0.601,0.37 0.688,0.712 0.087,0.342 -0.013,0.705 -0.263,0.955 L 47,87 Z"
       style="fill:#fbc8c8"
       id="path37"
       inkscape:connector-curvature="0" /><path
       d="m 72.925,61.075 c 0.25,-0.25 0.35,-0.612 0.263,-0.955 C 73.101,59.777 72.839,59.507 72.5,59.408 65.04,57.226 57.928,66.187 53,69 50.409,70.479 47.429,70.619 46,68 40.528,57.967 36.719,57.917 34.574,60.262 34.229,60.639 34.225,61.217 34.564,61.599 40.778,68.609 37,79 37,79 l 2.727,2.182 30.975,-17.884 z"
       style="fill:#f7b4b4"
       id="path41"
       inkscape:connector-curvature="0" /></g></svg>