<?xml version="1.0" encoding="UTF-8" standalone="no"?>
<!-- Generator: Adobe Illustrator 19.0.0, SVG Export Plug-In . SVG Version: 6.00 Build 0)  -->

<svg
   xmlns:dc="http://purl.org/dc/elements/1.1/"
   xmlns:cc="http://creativecommons.org/ns#"
   xmlns:rdf="http://www.w3.org/1999/02/22-rdf-syntax-ns#"
   xmlns:svg="http://www.w3.org/2000/svg"
   xmlns="http://www.w3.org/2000/svg"
   xmlns:sodipodi="http://sodipodi.sourceforge.net/DTD/sodipodi-0.dtd"
   xmlns:inkscape="http://www.inkscape.org/namespaces/inkscape"
   version="1.1"
   id="Capa_1"
   x="0px"
   y="0px"
   viewBox="0 0 960 231.1"
   style="enable-background:new 0 0 960 231.1;"
   xml:space="preserve"
   sodipodi:docname="logo-principal.svg"
   inkscape:version="0.92.1 r15371"><metadata
     id="metadata4511"><rdf:RDF><cc:Work
         rdf:about=""><dc:format>image/svg+xml</dc:format><dc:type
           rdf:resource="http://purl.org/dc/dcmitype/StillImage" /></cc:Work></rdf:RDF></metadata><defs
     id="defs4509" /><sodipodi:namedview
     pagecolor="#ffffff"
     bordercolor="#666666"
     borderopacity="1"
     objecttolerance="10"
     gridtolerance="10"
     guidetolerance="10"
     inkscape:pageopacity="0"
     inkscape:pageshadow="2"
     inkscape:window-width="1920"
     inkscape:window-height="1027"
     id="namedview4507"
     showgrid="false"
     inkscape:zoom="1.5"
     inkscape:cx="266.66667"
     inkscape:cy="35.550003"
     inkscape:window-x="-8"
     inkscape:window-y="-8"
     inkscape:window-maximized="1"
     inkscape:current-layer="Capa_1" /><style
     type="text/css"
     id="style4485">
	.st0{fill:#FFFFFF;}
	.st1{fill:#F44336;}
</style><g
     id="XMLID_27_"
     style="fill:#ffffff"><path
       id="XMLID_39_"
       class="st0"
       d="M204,172.7v-3c8-0.7,8-5.1,8-13.3V86c0-4.8,0.5-8.1-0.9-10c-1.5-1.9-4.1-3.3-7.1-4.3v-4.1h38.2   c10.4,0,18.4,2.8,24,7.4c5.6,4.6,8.4,11.2,8.4,19.5c0,5.9-1.8,11.2-4.7,15.5c-2.9,4.3-7.9,7.5-12.9,9.5v0.4c5,0.6,4.4,2.6,6.7,6   c2.3,3.5,5.7,10.2,10.1,20.2c4.2,9.8,7.3,15.9,9.3,18.6c1.9,2.6,2.9,4.2,7.9,4.8v1.1h-24c-3.1-3-7.2-12.1-12.1-24.3   c-3.4-8.4-5.9-13.5-7.6-16.3c-1.6-2.8-2.6-4.5-4.4-5.6c-1.8-1.1-6.9-1.5-9.9-1.5V155c0,4.6-0.5,7.9,1.1,10.2   c1.6,2.2,1.9,3.7,6.9,4.4v1.2h-37V172.7L204,172.7z M237.2,70.7H233v46.5c0,0.1,2,0.2,3.3,0.2c6.6,0,11.1-1.8,14.1-5.3   c3-3.6,4.4-11.2,4.4-18.8C254.8,79.5,248.8,70.7,237.2,70.7z"
       style="fill:#ffffff" /><path
       id="XMLID_38_"
       class="st0"
       d="M364.4,139.1c0,10.3-3.1,18.9-9.2,25.8c-6.2,6.9-14.2,10.4-24.3,10.4s-18.2-3.5-24.4-10.3   c-6.2-6.9-9.3-15.5-9.3-25.9c0-6.4,1.4-12.5,4.3-18.3c2.9-5.8,6.8-10.2,11.8-13.2c5-3,10.8-4.6,17.6-4.6c10.1,0,18.2,3.5,24.3,10.4   C361.3,120.4,364.4,128.9,364.4,139.1z M346.6,139.1c0-9.9-1.4-17.7-4.1-23.1c-2.7-5.5-6.6-8.2-11.6-8.2c-5.2,0-9.1,2.8-11.8,8.4   c-2.7,5.6-4,13.7-4,24.2c0,9.2,1.4,16.6,4.3,22c2.9,5.5,6.7,8.2,11.5,8.2c4.9,0,8.8-2.8,11.5-8.3   C345.2,156.8,346.6,149,346.6,139.1z"
       style="fill:#ffffff" /><path
       id="XMLID_37_"
       class="st0"
       d="M375,175.3v-28.6h2.6c5.4,16,11.9,22.5,19.5,22.5c2.6,0,4.9-0.3,6.7-2.2   c1.9-1.9,2.8-3.9,2.8-6.5c0-2.9-0.9-5.2-2.6-7.3c-1.7-2.1-5.4-4.5-11.2-7.2c-7.3-3.6-12.1-6.9-14.4-10.3c-2.3-3.3-3.5-7.4-3.5-12.2   c0-5.8,1.7-10.6,5.2-14.6c3.5-4,8-5.9,13.6-5.9c2,0,5.6,0.5,10.7,1.5c2,0.4,3.2-1.1,3.6-1.1c0.8,0,1.9,1.4,3.3-3.6h0.6v21h-0.6   c-1.6-3-3.9-7.4-6.8-10.3c-2.9-2.8-6.2-3.5-9.7-3.5c-2.6,0-4.7,1.1-6.4,2.5c-1.7,1.4-2.6,3.4-2.6,5.5s0.7,4.1,2.2,5.7   c1.4,1.6,4.7,3.6,9.7,6c7.7,3.7,13,7.5,15.6,11.3c2.6,3.8,3.9,8.5,3.9,14.1c0,6.5-2,12-6,16.4c-4,4.5-8.5,6.7-13.5,6.7   c-3,0-5.9-0.4-8.8-1.1c-3-0.8-5.1-1-6.3-1c-2.1,0-3.8-2.4-5,2.6H375V175.3L375,175.3z"
       style="fill:#ffffff" /><path
       id="XMLID_36_"
       class="st0"
       d="M468,161.5l1.7,2c-3.7,7.9-9.5,11.9-17.3,11.9c-5.7,0-10.8-1.9-14-5.6c-3.2-3.7-5.4-9-5.4-15.8   v-46.3h-8v-0.1c8-5.5,14.4-15.9,22.6-28.9h1.4v26h18v3h-18v41.9c0,6.1,1.4,10.4,3,13.1c1.6,2.7,4.4,4,7.8,4   C462.6,166.8,465.6,165,468,161.5z"
       style="fill:#ffffff" /><path
       id="XMLID_35_"
       class="st0"
       d="M497.8,99.7h1.2v58.5c0,6.7,5,10.5,8,11.4v1.1h-32v-1.1c3-0.9,5.5-2.1,6.7-3.8s1.3-4.7,1.3-8.9   v-35.7c0-4.1,0.2-7-1-8.6c-1.2-1.6-4-2.9-7-3.8v-3L497.8,99.7z M482.9,73c0-3.2,0.9-5.9,2.7-8.2c1.8-2.3,4.1-3.4,6.7-3.4   c2.6,0,4.7,1.1,6.6,3.3c1.8,2.2,2.7,5,2.7,8.2s-0.9,6-2.7,8.3c-1.8,2.3-4,3.4-6.6,3.4c-2.6,0-4.8-1.2-6.7-3.5   C483.7,78.9,482.9,76.2,482.9,73z"
       style="fill:#ffffff" /><path
       id="XMLID_34_"
       class="st0"
       d="M574.6,102.2l0.8,23.6H573c-5.1-13-11.7-19.5-19.8-19.5c-5.5,0-9.8,3.1-13,8.4   c-3.2,5.3-4.7,12.7-4.7,21.9c0,9.4,1.7,16.9,5.2,22.3c3.5,5.3,8.4,8.1,14.5,8.1c4,0,7.4-0.7,10.1-2.5c2.7-1.8,5.6-4.6,8.7-9.6h2.9   c-5.4,13-15,20.8-29,20.8c-9.1,0-16.4-3.3-22-9.7c-5.6-6.4-8.4-14.9-8.4-25.3c0-10.7,3.1-19.6,9.2-26.8   c6.2-7.1,13.8-10.8,23.1-10.8c3,0,6.6,0.3,10.6,1.1c3.5,0.7,5.9-0.6,7.1-0.6c1.4,0,2.9,1.2,4.2-3.8h3.1v3.3L574.6,102.2z"
       style="fill:#ffffff" /><path
       id="XMLID_33_"
       class="st0"
       d="M640.5,149.7h2.4c-2.4,10-6.2,14.1-11.3,18.2c-5.1,4.2-11,6.8-17.4,6.8c-8.4,0-15.4-3.1-21-9.9   s-8.4-15.2-8.4-25.4c0-10.4,2.9-19,8.6-26c5.7-7,12.8-10.4,21.4-10.4c7.7,0,14.1,0.5,19.1,6c5.1,5.5,8.1,11.7,9.1,19.7h-40.8   c0,5-0.1,4.1-0.1,5.1c0,9.1,1.8,17.6,5.5,23.3c3.7,5.7,8.2,7.9,13.6,7.9C629,164.9,635.4,159.7,640.5,149.7z M602.1,125.7h23.5   c-0.3-5-1.6-9.7-3.9-13.7c-2.2-4-5-5.1-8.2-5.1s-5.9,0.7-8,4.5C603.5,115.4,602.4,120.7,602.1,125.7z"
       style="fill:#ffffff" /><path
       id="XMLID_32_"
       class="st0"
       d="M675,103v17.7h0.2c5.1-13,11.1-19.5,17.8-19.5c3.7,0,6.9,2.8,9.6,6.6l-3.6,20.7   c-4.9-5.8-8.9-8.4-12.1-8.4c-2.4,0-4.4,0.8-6.2,2.2s-5.7,4-5.7,7.6v27.4c0,4.3,0,7.2,1.3,8.7c1.2,1.6,1.7,2.8,6.7,3.6v1.1h-34v-1.1   c5-1,6.4-2.4,7.6-4.1c1.2-1.7,2.4-4.4,2.4-8.3v-35.4c0-4.2-0.9-7.4-2.4-9.5c-1.6-2.1-2.6-3.3-7.6-3.6v-3l23.6-2.7l2.4-0.9V103z"
       style="fill:#ffffff" /><path
       id="XMLID_31_"
       class="st0"
       d="M734.2,99.7h3.8v58.5c0,6.7,0,10.5,8,11.4v1.1h-34v-1.1c5-0.9,5.5-2.1,6.7-3.8   c1.2-1.7,1.3-4.7,1.3-8.9v-35.7c0-4.1,0.2-7-1-8.6c-1.2-1.6-2-2.9-7-3.8v-3L734.2,99.7z M719.3,73c0-3.2,0.9-5.9,2.7-8.2   c1.8-2.3,4.1-3.4,6.7-3.4c2.6,0,4.7,1.1,6.6,3.3c1.8,2.2,2.7,5,2.7,8.2s-0.9,6-2.7,8.3c-1.8,2.3-4,3.4-6.6,3.4   c-2.6,0-4.8-1.2-6.7-3.5C720.2,78.9,719.3,76.2,719.3,73z"
       style="fill:#ffffff" /><path
       id="XMLID_30_"
       class="st0"
       d="M767.5,175.3c-4.5,0-8.2-1.7-11.4-5.2c-3.1-3.4-4.7-7.6-4.7-12.4s1.6-8.9,4.7-12.1   c3.1-3.2,9.6-6.4,19.5-9.7c4.8-1.6,8.2-2.8,10.3-3.8c0-6.2-1.1-10.7-3.2-13.5s-5.5-4.2-10.2-4.2c-7.3,0-12.7,3.2-16.2,11.2h-2.1   c1.4-8,4.2-12.8,8.5-16.8c4.2-4,9.4-5.9,15.6-5.9c7.2,0,11.9,2.2,16.2,6.6c4.3,4.4,5.5,10.6,5.5,18.5v31.6c0,5.9,2.1,7.7,4.3,7.7   c2.3,0,4.7-4.5,5.3-7.5h2.3c-0.3,3-1.6,8.6-3.8,10.9c-2.3,2.3-5.4,4-9.3,4c-3.3,0-6-0.4-8-1.9c-2-1.5-3.7-3.7-5.1-7.1l-1.2,1.5   C779.6,172.6,774,175.3,767.5,175.3z M788,161.1v-25.4c-9,3.8-12.9,7-15.3,9.7c-2.3,2.7-4,6.2-4,10.5c0,3.6,0.4,6.6,1.8,8.8   c1.4,2.2,4.2,3.3,6.4,3.3C779.9,168,783,165.7,788,161.1z"
       style="fill:#ffffff" /><path
       id="XMLID_29_"
       class="st0"
       d="M897,67.7v4.1c-5,1.5-6.5,3.1-7.8,4.8c-1.3,1.8-1.2,5.7-1.2,11.8v92c0,10.2-2.6,18.1-6.8,23.8   c-4.1,5.7-10.2,8.5-17.8,8.5c-5.9,0-11-3.1-15-7.1c-4-4-6.5-8.8-7.2-16.8h2.4c2.8,8,6.9,11.1,12.4,11.1c4.4,0,6.9-1.3,8.7-5   c1.9-3.7,2.1-9.5,2.1-18.5V86.7c0-5,0.7-8.4-0.7-10.3c-1.4-1.9-3.3-3.4-7.3-4.6v-4.1H897z"
       style="fill:#ffffff" /><path
       id="XMLID_28_"
       class="st0"
       d="M940.3,93.3c0-5.5-1.2-10-4-13.5c-2.8-3.5-5.9-5.2-9.4-5.2c-3.6,0-7.6,2.7-12.1,8.2l-1.1-1.5   c2-4.8,5-8.5,8.9-11.2c3.9-2.7,8.2-4.1,13-4.1c6.1,0,11.1,2.3,15.1,6.8c4,4.6,5.9,10.3,5.9,17.4c0,5.9-0.6,11.2-4.2,16   c-3.6,4.8-10.3,8.2-13.3,10.3v0.4c3,0.6,11.5,3.3,15.6,8.3c4.1,4.9,5.5,11.4,5.5,19.4c0,8.9-2.9,16.3-8.1,22.1   c-5.2,5.8-11.9,8.7-19.8,8.7c-9.8,0-17.6-4.6-23.3-13.9l1.1-1.4c5.9,5.7,11.2,8.5,16,8.5c4.8,0,8.7-2,11.7-6.2   c3-4.1,4.5-9.4,4.5-15.9c0-7.4-1.8-13.5-5.3-18.2c-3.6-4.8-8.8-7.1-14.9-7.1c-1.1,0-1,0.1-4,0.3v-2.8   C934,114.9,940.3,106.5,940.3,93.3z"
       style="fill:#ffffff" /></g><g
     id="XMLID_52_" /><g
     id="XMLID_53_" /><g
     id="XMLID_54_" /><g
     id="XMLID_55_" /><g
     id="XMLID_56_" /><path
     style="fill:#f44336;fill-opacity:1;stroke-width:0.66666669"
     d="m 149.875,0.3789062 c -3.21567,0.1610541 -6.50877,2.3162488 -8.28906,5.7382813 -0.79921,1.53622 -1.38688,1.8320313 -3.625,1.8320313 -8.31452,0 -13.78132,8.1344152 -13.15821,19.5781252 0.40764,7.4866 2.12738,11.245591 6.84571,14.957031 l 1.65625,1.302734 -6.57617,19.609375 c -8.60106,25.65103 -12.82807,34.06478 -20.97461,41.751956 -4.27436,4.03333 -10.330422,7.12071 -16.111332,8.21094 -5.73571,1.0817 -23.073445,0.30657 -31.109375,-1.39063 -20.39411,-4.30728 -37.81923,-14.417287 -47.71875,-27.685547 l -2.9843749,-4 0.4804688,4.582031 c 1.51737,14.48245 7.8636341,31.764466 14.0273441,38.197266 1.64711,1.71903 2.996093,3.20943 2.996093,3.31055 0,0.10112 -1.125,0.3872 -2.5,0.63672 -3.51057,0.63707 -6.792911,2.43339 -9.394531,5.14257 l -2.228515,2.32032 4.091796,2.18164 c 2.25039,1.19944 4.985978,3.30998 6.080078,4.6914 l 1.990235,2.51172 -1.708985,1.21289 c -4.47445,3.17446 -6.571704,5.00043 -8.427734,7.33594 -1.82406,2.29527 -1.907756,2.60084 -0.878906,3.20703 6.1046,3.5968 9.686657,8.08493 17.679687,22.14844 9.82846,17.29292 16.308562,25.95137 27.232422,36.38281 9.82124,9.37853 17.179005,13.23163 29.552735,15.47461 11.70951,2.12258 27.128594,0.66401 39.628904,-3.74805 5.78106,-2.04046 12.88281,-5.17689 12.88281,-5.68945 0,-0.15332 -0.46538,-0.9869 -1.0332,-1.85352 -0.90624,-1.38316 -1.00874,-5.96496 -0.83398,-37.49609 l 0.19922,-35.91992 2.47656,-4.15625 c 1.36212,-2.28602 2.76164,-5.27811 3.10937,-6.64844 1.1066,-4.36095 2.44229,-27.32626 2.08399,-35.824217 -0.0464,-1.1 0.009,-3.337113 0.12304,-4.970703 0.17546,-2.51677 0.46275,-3.040424 1.875,-3.433594 2.34836,-0.6538 12.23215,0.120026 12.82227,1.003906 0.26938,0.403491 0.49214,4.784375 0.49414,9.734378 0.002,4.95 0.33376,14.24934 0.73828,20.66601 l 0.73633,11.66602 3.4375,6.93555 3.4375,6.93359 0.33398,18.73242 0.33204,18.73242 1.20703,-5.33398 c 0.66396,-2.93333 1.53822,-8.88207 1.9414,-13.2207 0.97595,-10.5021 0.0819,-19.24873 -4.1875,-40.98047 -2.48377,-12.64275 -3.3827,-18.79294 -3.4707,-23.76172 -0.13623,-7.687522 0.31009,-8.849881 7.29297,-19.037111 3.80553,-5.55184 3.9446,-5.669603 6.85351,-5.876953 2.6626,-0.18978 6.67207,0.476647 9.57813,1.591796 0.88176,0.33837 0.99489,-0.01251 0.69336,-2.154296 -0.72225,-5.1303 -2.43149,-9.978853 -5.10352,-14.476563 -2.03474,-3.42496 -2.85784,-5.658666 -3.23047,-8.753906 -0.69826,-5.80007 -2.86785,-11.907255 -6.0332,-16.990235 -2.63771,-4.23569 -2.67912,-4.397151 -1.95117,-7.550781 1.36671,-5.92092 0.54671,-10.495364 -2.49219,-13.896484 -1.67364,-1.87313 -2.15481,-2.033669 -5.9375,-1.980469 l -4.11523,0.05664 -0.78321,-2.6132815 c -1.00338,-3.34898 -4.24064,-7.2742413 -6.92187,-8.3945313 -0.99579,-0.4160674 -2.05897,-0.5849346 -3.13086,-0.53125 z"
     id="path4513"
     inkscape:connector-curvature="0" /></svg>