<?xml version="1.0" encoding="utf-8"?>
<!-- Generator: Adobe Illustrator 19.0.0, SVG Export Plug-In . SVG Version: 6.00 Build 0)  -->
<svg version="1.1"
	 id="Layer_1" xmlns:sodipodi="http://sodipodi.sourceforge.net/DTD/sodipodi-0.dtd" xmlns:inkscape="http://www.inkscape.org/namespaces/inkscape" xmlns:rdf="http://www.w3.org/1999/02/22-rdf-syntax-ns#" xmlns:cc="http://creativecommons.org/ns#" xmlns:dc="http://purl.org/dc/elements/1.1/" xmlns:svg="http://www.w3.org/2000/svg" inkscape:version="0.92.1 r15371" sodipodi:docname="chicken-flat-ui.svg"
	 xmlns="http://www.w3.org/2000/svg" xmlns:xlink="http://www.w3.org/1999/xlink" x="0px" y="0px" viewBox="-249 95.7 460 391.5"
	 style="enable-background:new -249 95.7 460 391.5;" xml:space="preserve">
<style type="text/css">
	.st0{fill:#F44336;}
	.st1{fill:#FFFFFF;}
	.st2{fill:#D2D0D1;}
	.st3{fill:#F0B609;}
	.st4{fill:#F6F4EE;}
	.st5{opacity:0.1;enable-background:new    ;}
	.st6{fill:#945415;}
	.st7{fill:#C9721B;}
	.st8{fill:#FDFDFD;}
	.st9{fill:#EDEDED;}
	.st10{fill:none;}
</style>
<sodipodi:namedview  id="namedview50" borderopacity="1" bordercolor="#666666" inkscape:cy="163.089" showgrid="false" inkscape:zoom="0.7235313" gridtolerance="10" pagecolor="#ffffff" objecttolerance="10" inkscape:cx="241.05688" guidetolerance="10" inkscape:window-height="1027" inkscape:pageopacity="0" inkscape:window-width="1920" inkscape:window-y="-8" inkscape:window-maximized="1" inkscape:current-layer="Layer_1" inkscape:window-x="-8" inkscape:pageshadow="2">
	</sodipodi:namedview>
<g id="g917" transform="translate(616.42115,121.6257)">
	<circle id="path87" class="st0" cx="-634.5" cy="164.3" r="190.2"/>
	<g id="g12" transform="translate(-530.73032,-88.455053)">
		<path id="path2" inkscape:connector-curvature="0" class="st1" d="M-238.1,138.4h119c3.6,0,4.2-0.9,4.6-1.3l0.7-1l-0.3-1
			c-0.1-0.2-0.1-0.4-0.2-0.7c-0.4-1.1-1.2-1.9-1.7-2.6c-0.3-0.4-0.6-0.7-0.8-1c-0.2-0.4-0.3-0.7-0.4-1.1c-0.3-0.9-0.6-2-2.1-3.3
			c-1.7-1.4-3.1-1.7-4.6-2l-0.8-0.2c-1.2-0.2-1.9-0.6-2.8-1.1c-0.6-0.3-1.1-0.6-1.8-0.9c-3.1-1.3-6.1-1.5-9.1-1.6
			c-1.6-0.1-3.1-0.1-4.6-0.4c-1-0.2-2.1-0.5-3.2-0.8c-1.5-0.5-3-0.9-4.7-1.1c-2-0.2-3.9,0-5.7,0.2c-0.9,0.1-1.7,0.2-2.6,0.2
			c-2.5,0.2-4.8-0.2-7.3-0.5c-2.6-0.3-5.3-0.7-8-0.5c-2.9,0.2-5.7,0.7-8.3,1.3c-3,0.7-5.9,1.2-8.8,1.3c-1.8,0-3.5,0-5.3,0.1
			c-2.7,0.1-5.5,0.1-8.1,0.1c-4.8-0.1-9.3,0.8-13.6,1.7c-3.1,0.7-6.1,1.3-9.2,1.6c-4.6,0.4-5.7,1.1-8.6,3.7l-1,0.9
			c-1.1,0.9-2.6,2.3-3.8,3.9c-0.8,1.2-1,2.6-0.4,3.8C-241.3,137.6-239.8,138.4-238.1,138.4z"/>
		<path id="path4" inkscape:connector-curvature="0" class="st2" d="M-110.4,141.7c-1.9-2.1-4.7-3.3-7.7-3.3H-239
			c-3,0-5.9,1.2-7.7,3.3c-1.9,2.1-2.6,4.9-2,7.6c2.4,11,14.5,68.9,20.3,130.2c5.9,62,5.7,125.9,4.3,142.7c-0.1,1.5-1.1,3.7-1.8,5.1
			c-1.5,3.1-1.6,6.5-0.2,9.8c1.8,4.5,7.2,6.8,11.5,6.8h72.1c4.3,0,9.7-2.3,11.5-6.8c1.4-3.3,1.3-6.7-0.2-9.8
			c-0.7-1.4-1.7-3.6-1.8-5.1c-1.4-16.7-1.6-80.6,4.3-142.7c5.8-61.3,17.9-119.2,20.3-130.2C-107.7,146.6-108.5,143.8-110.4,141.7z"
			/>
		<path id="path6" inkscape:connector-curvature="0" class="st3" d="M-119.6,172.9h-117.9c4.8,25.2,11.5,65,15.4,106.1
			c6.2,65.2,5.6,128.4,4.3,143.8c-0.2,2-0.9,4.4-2.4,7.4c-0.7,1.5-0.7,2.9-0.1,4.6c0.6,1.5,3.2,2.8,5.6,2.8h72.1
			c2.3,0,4.9-1.3,5.6-2.8c0.7-1.6,0.6-3.1,0-4.5c-1.5-3.1-2.2-5.4-2.4-7.4c-1.3-15.4-1.9-78.7,4.3-143.8
			C-131.2,237.9-124.4,198.1-119.6,172.9L-119.6,172.9z"/>
		<path id="path8" inkscape:connector-curvature="0" class="st4" d="M-114.6,147.9c0.2-0.7,0-1.4-0.5-1.9c-0.6-0.7-1.7-1.2-2.9-1.2
			H-239c-1.2,0-2.3,0.4-2.9,1.2c-0.5,0.6-0.7,1.2-0.5,2c0.8,3.7,2.6,12.5,5,24.9h117.9C-117.3,160.5-115.4,151.6-114.6,147.9z"/>
		<path id="path10" inkscape:connector-curvature="0" class="st5" d="M-110.4,141.7c-1.9-2.1-4.7-3.3-7.7-3.3h-60.5V444h36.1
			c4.3,0,9.7-2.3,11.5-6.8c1.4-3.3,1.3-6.7-0.2-9.8c-0.7-1.4-1.7-3.6-1.8-5.1c-1.4-16.7-1.6-80.6,4.3-142.7
			c5.8-61.3,17.9-119.2,20.3-130.2C-107.7,146.6-108.5,143.8-110.4,141.7z"/>
	</g>
	<g id="g26" transform="rotate(-23.2,-171.2822,1792.6701)">
		<g id="g18">
			<path id="path14" inkscape:connector-curvature="0" class="st6" d="M57,157.4c-6.7,0.6-20.1-13-11.8-25.1
				c-17.9,4.7-43.5,11.3-61.7,14.9c-18.9,3.8-30.1,14.2-30.1,14.2L-17,172c0,0-36.5-1.4-54.9,13.7c-11.9,9.8-14.9,27.8-15.7,37.6
				c13.2,18.3,35.4,38.5,67.3,25.8c28-11.2,41.6-41.9,50.6-52.4C52.6,170.4,70,156.3,57,157.4L57,157.4z"/>
			<path id="path16" inkscape:connector-curvature="0" class="st7" d="M-72,185.7C-53.5,170.6-17,172-17,172l-29.6-10.6
				c0,0,11.2-10.5,30.1-14.2c18.2-3.6,43.8-10.2,61.7-14.9c0.2-0.4,0.4-0.7,0.7-1.1c8.7-10.9-19.7-9.3-48.4-2.4
				c-10.6,2.6-40.1-0.6-63.2,11.5c-31.4,16.4-36.2,60.7-26.9,75.6c1.5,2.3,3.1,4.8,4.9,7.3C-86.9,213.4-83.9,195.4-72,185.7
				L-72,185.7z"/>
		</g>
		<g id="g24">
			<path id="path20" inkscape:connector-curvature="0" class="st8" d="M112.4,101.7c1.2-11.3-7.1-21.4-18.4-22.6
				c-11.3-1.2-21.5,7-22.7,18.2c-0.7,7,2.2,13.6,7.3,17.9L44,135.8c0,0-6,5.5-1.3,13.4l67-39.3C111.1,107.4,112.1,104.7,112.4,101.7
				L112.4,101.7z"/>
			<path id="path22" inkscape:connector-curvature="0" class="st9" d="M55.4,156.1L90,137.2c2.6,7.2,9.1,12.7,17.2,13.6
				c11.3,1.2,21.5-7,22.7-18.2c1.2-11.3-7.1-21.4-18.4-22.6c-0.6-0.1-1.2,0-1.8,0l-67,39.3c0.2,0.3,0.3,0.6,0.5,1
				C46.5,154.7,55.4,156.1,55.4,156.1z"/>
		</g>
	</g>
	<g id="Chicken_2_" transform="translate(-682.76244,-49.755967)">
		<path id="path30" inkscape:connector-curvature="0" class="st10" d="M138,319.7c-6.9,0.6-21-13.8-11.1-26.1
			c8.7-10.9-19.7-9.3-48.4-2.4c-10.6,2.6-40.1-0.5-63.2,11.5c-31.4,16.4-36.2,60.7-26.9,75.6c12.2,19.4,35.9,47.6,72.2,33.1
			c28-11.2,41.6-41.9,50.6-52.4C133.6,332.8,151,318.6,138,319.7L138,319.7z"/>
	</g>
	<g id="g45" transform="translate(-682.76244,-49.755967)">
		<g id="g37">
			<path id="path33" inkscape:connector-curvature="0" class="st6" d="M138,319.7c-6.7,0.6-20.1-13-11.8-25.1
				c-17.9,4.7-43.5,11.3-61.7,14.9c-18.9,3.8-30.1,14.2-30.1,14.2L64,334.3c0,0-36.5-1.4-54.9,13.7c-11.9,9.8-14.9,27.8-15.7,37.5
				c13.2,18.3,35.4,38.5,67.3,25.8c28-11.2,41.6-41.9,50.6-52.4C133.6,332.8,151,318.6,138,319.7L138,319.7z"/>
			<path id="path35" inkscape:connector-curvature="0" class="st7" d="M9,348C27.5,332.9,64,334.3,64,334.3l-29.6-10.6
				c0,0,11.2-10.5,30.1-14.2c18.2-3.6,43.8-10.2,61.7-14.9c0.2-0.4,0.4-0.7,0.7-1.1c8.7-10.9-19.7-9.3-48.4-2.4
				c-10.6,2.6-40.1-0.5-63.2,11.5c-31.4,16.4-36.2,60.7-26.9,75.6c1.5,2.3,3.1,4.8,4.9,7.3C-5.9,375.8-2.9,357.8,9,348L9,348z"/>
		</g>
		<g id="g43">
			<path id="path39" inkscape:connector-curvature="0" class="st8" d="M193.4,264c1.2-11.3-7.1-21.4-18.4-22.6
				c-11.3-1.2-21.5,7-22.6,18.2c-0.7,7,2.2,13.6,7.3,17.9L125,298.1c0,0-6,5.5-1.3,13.4l67-39.3C192.1,269.8,193.1,267,193.4,264
				L193.4,264z"/>
			<path id="path41" inkscape:connector-curvature="0" class="st9" d="M136.4,318.4l34.6-18.9c2.6,7.2,9.1,12.7,17.2,13.6
				c11.3,1.2,21.5-7,22.7-18.2c1.2-11.3-7.1-21.4-18.4-22.6c-0.6-0.1-1.2,0-1.8,0l-67,39.3c0.2,0.3,0.3,0.6,0.5,1
				C127.4,317,136.4,318.4,136.4,318.4L136.4,318.4z"/>
		</g>
	</g>
</g>
</svg>
