<?xml version="1.0" encoding="utf-8"?>
<!-- Generator: Adobe Illustrator 19.0.0, SVG Export Plug-In . SVG Version: 6.00 Build 0)  -->
<svg version="1.1" id="Capa_1" xmlns="http://www.w3.org/2000/svg" xmlns:xlink="http://www.w3.org/1999/xlink" x="0px" y="0px"
	 viewBox="0 0 174 174.8" style="enable-background:new 0 0 174 174.8;" xml:space="preserve">
<style type="text/css">
	.st0{fill:#F44336;}
	.st1{fill:#FFFFFF;}
</style>
<g id="XMLID_2_">
	<circle id="XMLID_69_" class="st0" cx="86.8" cy="87.5" r="87.2"/>
	<g id="XMLID_4_">
		<path id="XMLID_70_" class="st1" d="M112.9,81.9L93.1,124c-1.1,2.4-3.6,3.9-6.3,3.9s-5.1-1.5-6.2-3.9L60.7,81.9
			c-1.4-3-1.8-6.4-1.8-9.7c0-15.4,12.5-27.9,27.9-27.9s27.9,12.5,27.9,27.9C114.7,75.5,114.3,78.9,112.9,81.9z M86.8,58.2
			c-7.7,0-13.9,6.3-13.9,13.9s6.3,13.9,13.9,13.9s13.9-6.3,13.9-13.9S94.5,58.2,86.8,58.2z"/>
	</g>
</g>
<g id="XMLID_1_">
</g>
<g id="XMLID_73_">
</g>
<g id="XMLID_74_">
</g>
<g id="XMLID_75_">
</g>
<g id="XMLID_76_">
</g>
</svg>
