<?xml version="1.0" encoding="utf-8"?>
<!-- Generator: Adobe Illustrator 19.0.0, SVG Export Plug-In . SVG Version: 6.00 Build 0)  -->
<svg version="1.1" id="Capa_1" xmlns="http://www.w3.org/2000/svg" xmlns:xlink="http://www.w3.org/1999/xlink" x="0px" y="0px"
	 viewBox="0 0 174 174.8" style="enable-background:new 0 0 174 174.8;" xml:space="preserve">
<style type="text/css">
	.st0{fill:#F44336;}
	.st1{fill:#FFFFFF;}
</style>
<g id="XMLID_2_">
	<circle id="XMLID_69_" class="st0" cx="86.8" cy="87.5" r="87.2"/>
	<g id="XMLID_4_">
		<path id="XMLID_70_" class="st1" d="M135.5,41.4L121.6,125c-0.2,1-0.8,1.9-1.7,2.4c-0.5,0.3-1.1,0.4-1.7,0.4
			c-0.4,0-0.9-0.1-1.3-0.3l-24.6-10.1l-13.2,16c-0.7,0.8-1.6,1.3-2.7,1.3c-0.4,0-0.8-0.1-1.2-0.2c-1.4-0.5-2.3-1.8-2.3-3.3v-19
			l47-57.6l-58.2,50.3l-21.5-8.8c-1.3-0.5-2.1-1.6-2.2-3C38,92,38.7,90.7,39.8,90l90.5-52.2c0.5-0.3,1.1-0.5,1.7-0.5
			c0.7,0,1.4,0.2,2,0.6C135.2,38.8,135.7,40.1,135.5,41.4z"/>
	</g>
</g>
<g id="XMLID_1_">
</g>
<g id="XMLID_72_">
</g>
<g id="XMLID_73_">
</g>
<g id="XMLID_74_">
</g>
<g id="XMLID_75_">
</g>
</svg>
