<?xml version="1.0" encoding="utf-8"?>
<!-- Generator: Adobe Illustrator 19.0.0, SVG Export Plug-In . SVG Version: 6.00 Build 0)  -->
<svg version="1.1" id="Capa_1" xmlns="http://www.w3.org/2000/svg" xmlns:xlink="http://www.w3.org/1999/xlink" x="0px" y="0px"
	 viewBox="0 0 174 174.8" style="enable-background:new 0 0 174 174.8;" xml:space="preserve">
<style type="text/css">
	.st0{fill:#F44336;}
	.st1{fill:#FFFFFF;}
</style>
<g id="XMLID_4_">
	<circle id="XMLID_2_" class="st0" cx="86.8" cy="87.5" r="87.2"/>
	<g id="XMLID_1_">
		<path id="XMLID_18_" class="st1" d="M131.7,70.4l-15,49.3c-1.4,4.6-6.1,8.2-10.8,8.2H55.7c-5.5,0-11.5-4.4-13.5-10.1
			c-0.9-2.4-0.9-4.8-0.1-6.9c0.1-1.1,0.3-2.2,0.4-3.5c0.1-0.9-0.4-1.6-0.3-2.2c0.2-1.3,1.4-2.2,2.2-3.7c1.6-2.7,3.5-7.1,4.1-10
			c0.3-1-0.3-2.2,0-3.2c0.3-1,1.3-1.8,1.8-2.8c1.5-2.5,3.4-7.3,3.6-9.9c0.1-1.1-0.4-2.4-0.1-3.3c0.4-1.3,1.6-1.8,2.4-2.9
			c1.3-1.8,3.5-7,3.8-9.8c0.1-0.9-0.4-1.8-0.3-2.8c0.2-1,1.5-2.1,2.4-3.4c2.3-3.4,2.7-10.8,9.6-8.9l-0.1,0.2
			c0.9-0.2,1.8-0.5,2.8-0.5h41.4c2.6,0,4.8,1.1,6.2,3c1.4,2,1.7,4.5,1,7.1l-14.9,49.3c-2.6,8.4-4,10.2-10.9,10.2H50
			c-0.7,0-1.6,0.2-2.1,0.8c-0.4,0.7-0.5,1.1-0.1,2.3c1.1,3.2,4.8,3.8,7.8,3.8h50.2c2,0,4.4-1.1,5-3.1l16.3-53.7
			c0.3-1,0.3-2.1,0.3-3.1c1.3,0.5,2.4,1.3,3.2,2.3C132.1,65.3,132.4,67.9,131.7,70.4z M69.5,79.1h33.1c0.9,0,2-0.8,2.3-1.7l1.1-3.5
			c0.3-1-0.2-1.7-1.2-1.7H71.7c-0.9,0-2,0.8-2.3,1.7l-1.1,3.5C68,78.4,68.5,79.1,69.5,79.1z M74,65.2h33.1c0.9,0,2-0.8,2.3-1.7
			l1.1-3.5c0.3-1-0.2-1.7-1.2-1.7H76.2c-0.9,0-2,0.8-2.3,1.7l-1.1,3.5C72.5,64.4,73,65.2,74,65.2z"/>
	</g>
</g>
<g id="XMLID_17_">
</g>
<g id="XMLID_22_">
</g>
<g id="XMLID_23_">
</g>
<g id="XMLID_24_">
</g>
<g id="XMLID_25_">
</g>
</svg>
