<?xml version="1.0" encoding="UTF-8" standalone="no"?>
<!-- Generator: Adobe Illustrator 19.0.0, SVG Export Plug-In . SVG Version: 6.00 Build 0)  -->

<svg
   xmlns:dc="http://purl.org/dc/elements/1.1/"
   xmlns:cc="http://creativecommons.org/ns#"
   xmlns:rdf="http://www.w3.org/1999/02/22-rdf-syntax-ns#"
   xmlns:svg="http://www.w3.org/2000/svg"
   xmlns="http://www.w3.org/2000/svg"
   xmlns:sodipodi="http://sodipodi.sourceforge.net/DTD/sodipodi-0.dtd"
   xmlns:inkscape="http://www.inkscape.org/namespaces/inkscape"
   version="1.1"
   id="Capa_1"
   x="0px"
   y="0px"
   viewBox="889 17 2737.4 528"
   style="enable-background:new 889 17 2737.4 528;"
   xml:space="preserve"
   sodipodi:docname="logoRostwhite.svg"
   inkscape:version="0.92.1 r15371"><metadata
     id="metadata3707"><rdf:RDF><cc:Work
         rdf:about=""><dc:format>image/svg+xml</dc:format><dc:type
           rdf:resource="http://purl.org/dc/dcmitype/StillImage" /><dc:title></dc:title></cc:Work></rdf:RDF></metadata><defs
     id="defs3705" /><sodipodi:namedview
     pagecolor="#ffffff"
     bordercolor="#666666"
     borderopacity="1"
     objecttolerance="10"
     gridtolerance="10"
     guidetolerance="10"
     inkscape:pageopacity="0"
     inkscape:pageshadow="2"
     inkscape:window-width="1920"
     inkscape:window-height="1027"
     id="namedview3703"
     showgrid="false"
     inkscape:zoom="0.64477243"
     inkscape:cx="1368.7"
     inkscape:cy="264"
     inkscape:window-x="-8"
     inkscape:window-y="-8"
     inkscape:window-maximized="1"
     inkscape:current-layer="Capa_1" /><style
     type="text/css"
     id="style3680">
	.st0{fill:#BC4F3B;}
	.st1{fill:#025E21;}
</style><g
     id="XMLID_81_"
     style="fill:#ffffff"><path
       id="XMLID_43_"
       class="st0"
       d="M1486.2,407v-6.8c19.8-1.6,29.7-11.5,29.7-29.9V211.9c0-10.8-2.1-18.3-6.2-22.5   c-4.1-4.2-11.9-7.4-23.5-9.6V173h111.3c29.2,0,51.6,5.1,67.3,15.4c15.7,10.3,23.5,24.7,23.5,43.4c0,13.4-4.1,24.9-12.2,34.6   c-8.1,9.6-19.8,16.6-35.1,21v0.8c5.5,1.3,11.4,5.8,17.8,13.6c6.4,7.8,15.6,23,27.8,45.6c11.9,22,20.5,35.9,25.9,41.8   s12.8,9.5,22.2,10.9v6.8h-67.5c-8.8-10.5-20.2-29.4-34-56.9c-9.5-18.9-16.6-31.4-21.2-37.7c-4.6-6.3-9.4-10.6-14.5-13.2   c-5-2.5-15-3.8-30-3.8v71.9c0,10.3,2.3,17.9,6.8,22.9c4.6,5,12.3,8.3,23.2,9.9v6.8h-111.3V407z M1583.5,186.3h-16v95.9   c4,0.3,7.8,0.4,11.3,0.4c18.6,0,32.2-4,40.7-12s12.8-20.7,12.8-38C1632.3,201.7,1616,186.3,1583.5,186.3z"
       style="fill:#ffffff" /><path
       id="XMLID_46_"
       class="st0"
       d="M1940.1,331.4c0,23.2-8.6,42.6-25.9,58.2s-39.9,23.4-68.1,23.4s-50.9-7.8-68.3-23.3   c-17.4-15.6-26.1-35-26.1-58.3c0-14.5,4-28.2,12-41.2s19-22.9,33-29.8c14-6.8,30.4-10.3,49.3-10.3c28.3,0,51,7.8,68.2,23.4   C1931.5,289.2,1940.1,308.5,1940.1,331.4z M1890.1,331.5c0-22.4-3.8-39.8-11.4-52.1c-7.6-12.3-18.5-18.5-32.5-18.5   c-14.5,0-25.5,6.3-33,19c-7.6,12.6-11.3,30.8-11.3,54.4c0,20.7,4,37.3,12,49.6s18.8,18.5,32.3,18.5c13.8,0,24.6-6.2,32.3-18.7   C1886.2,371.2,1890.1,353.8,1890.1,331.5z"
       style="fill:#ffffff" /><path
       id="XMLID_49_"
       class="st0"
       d="M1970.2,413v-58.2h6.8c15.1,31.6,33.3,47.5,54.7,47.5c7.3,0,13.6-2.2,18.9-6.5   c5.3-4.3,7.9-9.5,7.9-15.5c0-6.5-2.4-12.2-7.2-16.9c-4.8-4.8-15.2-10.3-31.3-16.5c-20.4-8-33.9-15.7-40.4-23.2s-9.8-16.7-9.8-27.5   c0-13,4.9-24,14.7-32.9c9.8-8.9,22.5-13.3,38-13.3c5.7,0,15.7,1.1,29.9,3.3c5.6,0.8,9,1.2,10.2,1.2c2.3,0,5.4-1.5,9.2-4.5h6.8v47.3   h-6.8c-4.6-11.5-10.9-20.4-19.1-26.9c-8.2-6.4-17.3-9.7-27.3-9.7c-7.2,0-13.2,1.6-18,4.8s-7.2,7.2-7.2,12s2,9,6.1,12.6   c4,3.6,13.1,8.1,27.1,13.4c21.7,8.3,36.3,16.8,43.6,25.4s10.9,19.2,10.9,31.8c0,14.6-5.6,26.9-16.7,37   c-11.1,10.1-23.7,15.1-37.8,15.1c-8.3,0-16.6-0.8-24.8-2.5c-8.3-1.8-14.2-2.7-17.6-2.7c-6,0-10.6,1.8-13.9,5.3h-6.9V413z"
       style="fill:#ffffff" /><path
       id="XMLID_51_"
       class="st0"
       d="M2230.4,381.8l4.7,4.5c-10.5,17.8-26.7,26.8-48.4,26.8c-16.1,0-28.7-4.2-37.7-12.5   s-13.5-20.2-13.5-35.5v-96.9h-27.1v-7.6c20.2-12.4,41.8-33.3,64.8-62.7h7.6v58.4h49.6v11.9h-49.6V355c0,13.7,2.2,23.5,6.5,29.6   c4.4,6.1,11.4,9.1,21,9.1C2216.2,393.7,2223.6,389.7,2230.4,381.8z"
       style="fill:#ffffff" /><path
       id="XMLID_53_"
       class="st1"
       d="M2313.9,250.1h6.8v124.4c0,15.1,8.1,23.6,24.4,25.6v6.8h-94.9v-6.8c10.2-2,16.9-4.8,20.2-8.6   c3.3-3.8,5-10.5,5-20.1V291c0-9.2-1.8-15.7-5.3-19.3c-3.5-3.6-10.8-6.5-21.9-8.6v-6.8L2313.9,250.1z M2272,182.6   c0-7.2,2.6-13.3,7.7-18.4c5.1-5.1,11.4-7.6,18.7-7.6c7.2,0,13.3,2.5,18.4,7.5c5.1,5,7.6,11.2,7.6,18.5s-2.5,13.5-7.6,18.7   c-5.1,5.1-11.2,7.7-18.4,7.7c-7.3,0-13.5-2.6-18.7-7.8C2274.5,195.9,2272,189.7,2272,182.6z"
       style="fill:#ffffff" /><path
       id="XMLID_56_"
       class="st0"
       d="M2528.2,250.1l3.3,54.9h-6.8c-14.3-30.5-32.8-45.7-55.5-45.7c-15.4,0-27.5,6-36.3,17.9   c-8.9,11.9-13.3,28.2-13.3,48.9c0,21.2,4.9,37.9,14.7,49.9c9.8,12,23.4,18.1,40.7,18.1c11.3,0,20.8-2.1,28.4-6.2   c7.6-4.1,15.8-11.5,24.5-22.2h8c-15,31.5-42.1,47.3-81.3,47.3c-25.4,0-45.9-7.2-61.6-21.7s-23.5-33.4-23.5-56.8   c0-24,8.6-44,25.9-60.2c17.3-16.1,38.8-24.2,64.6-24.2c8.5,0,18.4,0.8,29.7,2.5c9.8,1.6,16.4,2.3,19.9,2.3c4,0,8-1.6,11.9-4.9h6.7   V250.1z"
       style="fill:#ffffff" /><path
       id="XMLID_58_"
       class="st0"
       d="M2713.9,360.5h6.8c-6.8,16.3-17.4,29.1-31.8,38.5c-14.4,9.4-30.7,14.1-48.8,14.1   c-23.6,0-43.2-7.6-58.9-22.9s-23.5-34.5-23.5-57.5c0-23.4,8-43,24.1-58.8c16.1-15.8,36-23.6,59.9-23.6c21.5,0,39.4,6.2,53.6,18.5   c14.3,12.3,22.8,28.8,25.5,49.5h-114.3c-0.1,2.1-0.2,4.2-0.2,6.3c0,20.4,5.1,37,15.4,49.8s23,19.1,38.2,19.1   C2681.6,393.3,2699.6,382.4,2713.9,360.5z M2606.3,308.9h65.8c-0.9-14.2-4.5-25.7-10.8-34.7c-6.3-8.9-14-13.4-23.1-13.4   c-9.1,0-16.6,4.4-22.3,13.1C2610.2,282.7,2607,294.4,2606.3,308.9z"
       style="fill:#ffffff" /><path
       id="XMLID_61_"
       class="st0"
       d="M2810.2,250.1v48h0.8c14.3-32,31-48,50-48c10.4,0,19.3,4.3,26.8,12.8l-10,45.6   c-13.7-13-25-19.5-34-19.5c-6.6,0-12.4,1.6-17.4,4.7s-10.4,8.7-16.2,16.8v61.7c0,9.6,1.7,16.2,5.1,19.7s10.2,6.3,20.5,8.2v6.8   h-96.1v-6.8c9.9-2.3,16.6-5.4,20-9.2c3.4-3.8,5.2-10,5.2-18.8v-79.7c0-9.5-2.2-16.6-6.5-21.3c-4.4-4.7-11.4-7.4-21-8.2v-6.8l66-6.1   L2810.2,250.1L2810.2,250.1z"
       style="fill:#ffffff" /><path
       id="XMLID_63_"
       class="st0"
       d="M2976.4,250.1h6.8v124.4c0,15.1,8.1,23.6,24.4,25.6v6.8h-94.9v-6.8c10.2-2,16.9-4.8,20.2-8.6   c3.3-3.8,5-10.5,5-20.1V291c0-9.2-1.8-15.7-5.3-19.3c-3.5-3.6-10.8-6.5-21.9-8.6v-6.8L2976.4,250.1z M2934.5,182.6   c0-7.2,2.6-13.3,7.7-18.4c5.1-5.1,11.4-7.6,18.7-7.6c7.2,0,13.3,2.5,18.4,7.5c5.1,5,7.6,11.2,7.6,18.5s-2.5,13.5-7.6,18.7   c-5.1,5.1-11.2,7.7-18.4,7.7c-7.3,0-13.5-2.6-18.7-7.8C2937,195.9,2934.5,189.7,2934.5,182.6z"
       style="fill:#ffffff" /><path
       id="XMLID_66_"
       class="st0"
       d="M3069.6,413c-12.5,0-23.1-3.9-31.9-11.6s-13.2-17.1-13.2-28s4.4-20,13.1-27.2   c8.7-7.2,27-14.5,54.7-21.8c13.4-3.5,23-6.4,28.9-8.6c0-13.9-3-24-9-30.3s-15.5-9.4-28.5-9.4c-20.4,0-35.5,8.4-45.3,25.2h-5.9   c4-16.3,11.9-28.9,23.7-37.8c11.8-8.9,26.4-13.4,43.8-13.4c20.2,0,36.3,5,48.3,14.8c12,9.9,18.1,23.8,18.1,41.6v71.1   c0,13.4,3.1,20.1,9.2,20.1c6.4,0,10.4-4.7,11.9-14.1h6.4c-0.8,9.4-4.4,16.6-10.7,21.7c-6.4,5.1-15,7.6-26,7.6   c-9.2,0-16.7-1.7-22.4-5s-10.4-8.8-14.2-16.3l-3.5,3.3C3103.7,407,3087.8,413,3069.6,413z M3120.8,381v-57.2   c-19.9,8.5-33.1,15.8-39.6,21.9c-6.4,6.1-9.7,14-9.7,23.6c0,8.2,1.9,14.8,5.8,19.8c3.8,5,8.9,7.5,15.1,7.5   C3100.9,396.6,3110.4,391.4,3120.8,381z"
       style="fill:#ffffff" /><path
       id="XMLID_69_"
       class="st0"
       d="M3433.5,173v6.8c-12.3,3.3-20.3,6.9-23.9,10.8c-3.6,4-5.4,12.9-5.4,26.6v207.1   c0,22.9-5.8,40.8-17.4,53.6c-11.6,12.8-27.9,19.2-49,19.2c-16.4,0-30.3-4.5-41.6-13.5s-17.9-20.8-19.7-35.4h6.8   c7.8,15,19.4,22.5,34.8,22.5c12.4,0,21.2-4.2,26.5-12.6s7.9-22.7,7.9-43V213.4c0-11.2-1.9-18.9-5.8-23.2   c-3.8-4.3-11.9-7.7-24.1-10.3V173H3433.5z"
       style="fill:#ffffff" /><path
       id="XMLID_71_"
       class="st0"
       d="M3555,228.3c0-12.4-3.9-22.5-11.8-30.3c-7.9-7.8-16.8-11.7-26.7-11.7c-10,0-21.4,6.1-34,18.4   l-3.1-3.3c5.6-10.7,13.9-19.1,24.8-25.2c10.9-6.1,23-9.2,36.3-9.2c17.1,0,31.1,5.1,42.2,15.4c11.1,10.3,16.6,23.3,16.6,39.1   c0,13.3-5,25.3-15,36c-10,10.7-23.6,18.5-40.6,23.1v0.8c19.9,1.3,35.6,7.5,47,18.7c11.4,11.1,17.1,25.7,17.1,43.7   c0,20.1-7.3,36.6-21.8,49.7s-32.8,19.6-55,19.6c-27.5,0-49.2-10.4-65.2-31.3l3.1-3.1c16.4,12.8,31.4,19.1,44.9,19.1   c13.4,0,24.3-4.6,32.8-13.9c8.5-9.2,12.7-21.2,12.7-35.7c0-16.7-5-30.3-14.9-41c-10-10.7-23.5-16-40.7-16c-3.1,0-6.4,0.2-10,0.6   v-6.4C3534.5,277,3555,258,3555,228.3z"
       style="fill:#ffffff" /></g><g
     id="XMLID_14_" /><g
     id="XMLID_42_" /><g
     id="XMLID_73_" /><g
     id="XMLID_74_" /><g
     id="XMLID_75_" /><g
     id="XMLID_76_" /><path
     style="fill:#ffffff;stroke-width:1.55093479"
     d="m 1156.5549,537.75103 c -26.5409,-2.52906 -48.7415,-7.5279 -62.0804,-13.97845 -22.3112,-10.78945 -42.8497,-26.08294 -69.5793,-51.81067 -15.7396,-15.14955 -24.6296,-26.23926 -46.03575,-57.42643 -17.53792,-25.55145 -31.0541,-39.50721 -42.32118,-43.69751 l -8.29539,-3.08512 7.59993,-7.80257 c 4.55736,-4.67886 11.44855,-9.56911 17.21326,-12.21517 5.28734,-2.42694 9.61334,-4.87642 9.61334,-5.4433 0,-0.56687 -3.0071,-3.80252 -6.68244,-7.19034 -5.58855,-5.15134 -13.58149,-9.22096 -23.94852,-12.1934 -3.30588,-0.94787 -2.1684,-3.3139 3.87733,-8.06507 8.8357,-6.9437 15.41076,-9.82234 24.60173,-10.77094 4.5956,-0.47431 8.35564,-1.46266 8.35564,-2.19633 0,-0.73368 -0.92126,-1.33396 -2.04724,-1.33396 -3.71506,0 -14.43766,-10.53261 -21.0417,-20.66889 -11.80813,-18.12382 -23.26936,-51.67058 -25.85866,-75.68775 l -1.06543,-9.88239 4.62041,6.20374 c 26.4062,35.45516 85.51157,62.80692 154.06057,71.29345 25.8916,3.20544 64.9219,3.13734 79.4644,-0.13866 28.5866,-6.43968 48.3303,-21.12502 66.6665,-49.58655 9.6803,-15.02579 11.9752,-19.8724 27.4713,-58.01521 7.5522,-18.58937 15.2664,-36.80801 17.1427,-40.48585 1.8861,-3.69708 2.7244,-6.91599 1.875,-7.19915 -0.8451,-0.28168 -4.6865,-2.50984 -8.5366,-4.95146 -14.2602,-9.04355 -20.0662,-32.28681 -12.0509,-48.24381 7.2272,-14.3881 16.1321,-20.09264 31.3651,-20.09264 h 9.7569 l 3.1002,-6.42332 c 4.8977,-10.14779 12.9925,-15.741467 23.9242,-16.532191 7.4587,-0.539518 10.3093,-0.0067 15.4642,2.890504 6.8255,3.836137 13.2815,12.018957 14.986,18.994307 0.8195,3.35389 1.6458,4.07308 3.5876,3.12241 1.3875,-0.67934 6.3613,-1.24441 11.0529,-1.25571 10.251,-0.0247 16.8068,3.94538 21.0448,12.74413 3.4686,7.20148 3.6417,19.75872 0.3586,26.00871 -2.4204,4.60769 -2.379,4.72649 4.2636,12.25425 10.7955,12.23391 19.3101,32.88125 19.3101,46.82555 0,2.36805 3.0183,7.49577 7.7804,13.21808 4.2793,5.14203 8.873,11.91618 10.2083,15.05367 2.7016,6.34772 6.2229,23.10967 5.0924,24.2402 -0.3992,0.39912 -5.1199,-0.64197 -10.4907,-2.31353 -5.3707,-1.67155 -13.3668,-3.01228 -17.7691,-2.97939 l -8.0043,0.0599 -12.4074,13.95213 c -6.8242,7.67367 -14.3997,17.59213 -16.8346,22.04102 -4.2484,7.76238 -4.3941,8.7149 -3.6091,23.59823 0.4952,9.38764 2.4402,21.63106 4.9277,31.0187 16.2229,61.22434 18.9257,77.81101 17.3112,106.23903 -0.9434,16.61107 -4.8741,35.19973 -9.8674,46.66412 -2.7538,6.32245 -2.7788,5.93518 -2.2734,-35.25734 0.3576,-29.14999 -0.045,-43.51188 -1.3409,-47.85375 -1.0185,-3.41206 -5.6104,-11.35112 -10.2043,-17.64236 -4.5939,-6.29131 -8.3525,-12.58367 -8.3525,-13.98309 0,-1.39944 -1.3973,-18.41821 -3.105,-37.8195 -2.2728,-25.82033 -2.6541,-35.99828 -1.4224,-37.97329 1.119,-1.79421 1.2475,-5.81583 0.3837,-12.0038 l -1.299,-9.30561 -18.7637,-0.43364 c -15.3231,-0.35413 -19.1247,0.001 -20.7326,1.93867 -1.4773,1.78001 -1.5301,2.90096 -0.2115,4.48972 1.3258,1.59754 1.1844,3.21585 -0.576,6.59147 -2.9029,5.56611 -2.9017,6.02962 0.022,8.95307 2.1316,2.13161 2.0484,5.98552 -0.8137,37.72095 -1.7533,19.44074 -3.5686,37.23635 -4.0338,39.54582 -0.4653,2.30946 -3.4931,7.54387 -6.7285,11.63201 -11.7786,14.88326 -11.0747,8.79746 -10.9892,95.02174 0.042,42.60157 0.5163,78.70764 1.0532,80.23573 0.537,1.52808 2.3406,3.8808 4.0082,5.22825 2.8764,2.32422 2.2879,2.73191 -11.4691,7.94621 -39.0172,14.78859 -84.5555,21.65862 -120.7215,18.2124 z"
     id="path3711"
     inkscape:connector-curvature="0" /></svg>