<?xml version="1.0" encoding="UTF-8" standalone="no"?>
<!-- Svg Vector Icons : http://www.onlinewebfonts.com/icon -->

<svg
   xmlns:dc="http://purl.org/dc/elements/1.1/"
   xmlns:cc="http://creativecommons.org/ns#"
   xmlns:rdf="http://www.w3.org/1999/02/22-rdf-syntax-ns#"
   xmlns:svg="http://www.w3.org/2000/svg"
   xmlns="http://www.w3.org/2000/svg"
   xmlns:sodipodi="http://sodipodi.sourceforge.net/DTD/sodipodi-0.dtd"
   xmlns:inkscape="http://www.inkscape.org/namespaces/inkscape"
   version="1.1"
   x="0px"
   y="0px"
   viewBox="0 0 1000 1000"
   enable-background="new 0 0 1000 1000"
   xml:space="preserve"
   id="svg4246"
   inkscape:version="0.91 r13725"
   sodipodi:docname="pollo.svg"><defs
     id="defs4266" /><sodipodi:namedview
     pagecolor="#ffffff"
     bordercolor="#666666"
     borderopacity="1"
     objecttolerance="10"
     gridtolerance="10"
     guidetolerance="10"
     inkscape:pageopacity="0"
     inkscape:pageshadow="2"
     inkscape:window-width="1920"
     inkscape:window-height="1030"
     id="namedview4264"
     showgrid="false"
     inkscape:zoom="0.842"
     inkscape:cx="452.49406"
     inkscape:cy="547.50594"
     inkscape:window-x="0"
     inkscape:window-y="0"
     inkscape:window-maximized="1"
     inkscape:current-layer="svg4246" /><metadata
     id="metadata4248"> Svg Vector Icons : http://www.onlinewebfonts.com/icon <rdf:RDF><cc:Work
     rdf:about=""><dc:format>image/svg+xml</dc:format><dc:type
       rdf:resource="http://purl.org/dc/dcmitype/StillImage" /></cc:Work></rdf:RDF></metadata><path
     inkscape:connector-curvature="0"
     id="path4254"
     d="m 753.2,10 c 29.3,0 53.1,23.8 53.1,53.1 0,29.3 -23.8,53.1 -53.1,53.1 -29.3,0 -53.1,-23.8 -53.1,-53.1 0,-29.3 23.8,-53.1 53.1,-53.1 z" /><path
     inkscape:connector-curvature="0"
     id="path4256"
     d="m 658.2,52.6 c 30.8,-14 67.1,-0.4 81.1,30.4 14,30.8 0.4,67.1 -30.4,81.1 -30.8,14 -67.2,0.4 -81.1,-30.4 -14,-30.7 -0.4,-67.1 30.4,-81.1 z" /><path
     inkscape:connector-curvature="0"
     id="path4258"
     d="m 849,53.1 c 21.7,11.9 29.7,39.3 17.7,61 -12,21.8 -39.2,29.7 -61,17.7 C 784,119.9 776,92.5 788,70.8 799.9,49.1 827.3,41.1 849,53.1 Z" /><path
     d="M 785.80078 91.699219 C 593.90078 91.699219 675.50078 418.40039 418.30078 418.40039 C 181.50078 418.40039 67.100781 324.49922 50.800781 283.69922 C 50.800781 344.99922 91.599609 451.10039 140.59961 463.40039 C 111.99961 463.40039 87.499609 471.59961 67.099609 496.09961 C 95.699609 500.19961 112.00039 508.40078 128.40039 528.80078 C 95.700391 537.00078 79.399609 553.29961 67.099609 569.59961 C 134.83803 578.03235 163.55099 682.16505 248.95898 745.67383 C 278.02776 771.44312 315.7748 799.14415 360.59961 819.50977 C 398.89163 836.9073 492.53948 843.52759 521.81445 841.89258 C 571.40087 839.12317 643.13609 828.17823 708.41602 799.94727 C 702.67451 798.60314 698.26073 796.9716 695.85742 795.01172 L 695.85547 795.01172 C 692.07741 791.61643 692.11523 780.60742 692.11523 780.60742 L 689.93164 545.23828 C 692.57628 519.20907 719.68568 508.30999 723.08594 488.2207 L 734.85938 369.46094 C 717.48062 363.80176 736.74734 347.16319 734.48047 344.05078 C 724.65778 339.52354 734.5918 333.24805 734.5918 333.24805 C 760.66051 331.5504 771.79979 331.2672 795.60156 332.96484 C 797.49057 334.37921 806.12534 335.21116 798.19141 344.26562 C 800.45828 349.35884 810.5943 364.73264 797.37109 369.25977 L 808.5 486.90234 C 809.63383 504.72549 842.18888 521.02803 843.32227 549.32227 L 842.00586 687.3125 C 857.97909 657.78799 867.40039 622.88955 867.40039 581.69922 C 867.40039 483.69922 826.59961 434.70078 826.59961 365.30078 C 826.59961 328.50078 863.40078 312.19961 883.80078 283.59961 C 887.90078 283.59961 920.49961 279.50078 949.09961 295.80078 C 949.19961 234.60078 908.30078 222.29961 908.30078 210.09961 C 908.30078 156.99961 859.30078 91.699219 785.80078 91.699219 z M 806.19922 169.30078 C 818.49922 169.30078 830.69922 181.60078 830.69922 193.80078 C 830.69922 206.00078 818.49922 218.30078 806.19922 218.30078 C 793.99922 218.30078 781.69922 206.00078 781.69922 193.80078 C 781.69922 181.60078 793.89922 169.30078 806.19922 169.30078 z "
     id="path4262" /></svg>